<svg width="1646" height="294" viewBox="0 0 1646 294" fill="none" xmlns="http://www.w3.org/2000/svg">
<circle cx="132.5" cy="146.5" r="132.5" fill="#43A7EF"/>
<path d="M506.72 135.4V149.8C506.72 174.92 498.88 195 483.2 210.04C467.68 224.92 447.92 232.36 423.92 232.36C397.84 232.36 376.16 223.96 358.88 207.16C341.76 190.36 333.2 169.72 333.2 145.24C333.2 120.76 341.68 100.04 358.64 83.08C375.76 66.12 396.64 57.64 421.28 57.64C436.96 57.64 451.28 61.16 464.24 68.2C477.36 75.24 487.52 84.52 494.72 96.04L462.08 114.76C458.4 109 452.88 104.28 445.52 100.6C438.32 96.92 430.16 95.08 421.04 95.08C406.8 95.08 394.96 99.8 385.52 109.24C376.24 118.68 371.6 130.76 371.6 145.48C371.6 160.04 376.4 171.96 386 181.24C395.6 190.36 408.4 194.92 424.4 194.92C446.64 194.92 460.96 186.28 467.36 169H422.48V135.4H506.72ZM563.169 130.36C565.409 122.68 569.889 116.84 576.609 112.84C583.489 108.68 591.009 106.6 599.169 106.6V147.4C590.369 145.96 582.129 147.48 574.449 151.96C566.929 156.28 563.169 163.88 563.169 174.76V229H527.169V109H563.169V130.36ZM715.201 214.12C702.881 226.28 687.841 232.36 670.081 232.36C652.321 232.36 637.281 226.28 624.961 214.12C612.641 201.8 606.481 186.76 606.481 169C606.481 151.24 612.641 136.28 624.961 124.12C637.281 111.8 652.321 105.64 670.081 105.64C687.841 105.64 702.881 111.8 715.201 124.12C727.521 136.28 733.681 151.24 733.681 169C733.681 186.76 727.521 201.8 715.201 214.12ZM650.401 189.4C655.681 194.68 662.241 197.32 670.081 197.32C677.921 197.32 684.481 194.68 689.761 189.4C695.041 184.12 697.681 177.32 697.681 169C697.681 160.68 695.041 153.88 689.761 148.6C684.481 143.32 677.921 140.68 670.081 140.68C662.241 140.68 655.681 143.32 650.401 148.6C645.121 153.88 642.481 160.68 642.481 169C642.481 177.32 645.121 184.12 650.401 189.4ZM881.356 109H919.756L881.356 229H847.756L828.556 164.92L809.356 229H775.756L737.356 109H775.756L793.036 173.32L811.756 109H845.356L864.076 173.32L881.356 109Z" fill="white"/>
<path d="M1039.4 141.88C1053.16 150.68 1060.04 163.32 1060.04 179.8C1060.04 194.36 1054.84 206.2 1044.44 215.32C1034.04 224.44 1021.16 229 1005.8 229H935.244V61H1001C1016.04 61 1028.6 65.48 1038.68 74.44C1048.92 83.24 1054.04 94.76 1054.04 109C1054.04 122.44 1049.16 133.4 1039.4 141.88ZM1001 97H973.644V126.76H1001C1005.32 126.76 1008.84 125.4 1011.56 122.68C1014.28 119.8 1015.64 116.2 1015.64 111.88C1015.64 107.56 1014.28 104.04 1011.56 101.32C1008.84 98.44 1005.32 97 1001 97ZM1005.8 193C1010.6 193 1014.44 191.56 1017.32 188.68C1020.2 185.64 1021.64 181.72 1021.64 176.92C1021.64 172.12 1020.2 168.28 1017.32 165.4C1014.44 162.36 1010.6 160.84 1005.8 160.84H973.644V193H1005.8ZM1167.41 109H1203.41V229H1167.41V217.72C1158.93 227.48 1147.01 232.36 1131.65 232.36C1115.81 232.36 1102.29 226.28 1091.09 214.12C1079.89 201.8 1074.29 186.76 1074.29 169C1074.29 151.24 1079.89 136.28 1091.09 124.12C1102.29 111.8 1115.81 105.64 1131.65 105.64C1147.01 105.64 1158.93 110.52 1167.41 120.28V109ZM1118.21 190.36C1123.49 195.64 1130.37 198.28 1138.85 198.28C1147.33 198.28 1154.21 195.64 1159.49 190.36C1164.77 185.08 1167.41 177.96 1167.41 169C1167.41 160.04 1164.77 152.92 1159.49 147.64C1154.21 142.36 1147.33 139.72 1138.85 139.72C1130.37 139.72 1123.49 142.36 1118.21 147.64C1112.93 152.92 1110.29 160.04 1110.29 169C1110.29 177.96 1112.93 185.08 1118.21 190.36ZM1300.15 105.64C1312.95 105.64 1323.59 110.04 1332.07 118.84C1340.71 127.64 1345.03 139.8 1345.03 155.32V229H1309.03V160.6C1309.03 153.56 1307.03 148.2 1303.03 144.52C1299.19 140.68 1294.23 138.76 1288.15 138.76C1281.27 138.76 1275.83 140.84 1271.83 145C1267.83 149.16 1265.83 155.32 1265.83 163.48V229H1229.83V109H1265.83V120.28C1273.03 110.52 1284.47 105.64 1300.15 105.64ZM1484.95 229H1444.15L1405.75 175.96V229H1369.75V61H1405.75V161.56L1441.75 109H1483.75L1440.07 169L1484.95 229Z" fill="#50A4E1"/>
</svg>
